<svg xmlns="http://www.w3.org/2000/svg" xmlns:xlink="http://www.w3.org/1999/xlink" width="2140px" height="998px" version="1.1" style="background-color: rgb(255, 255, 255);"><defs/><g transform="translate(0.5,0.5)"><path d="M 57.07 247.28 L 600.55 247.28 L 709.24 355.98 L 709.24 676.63 L 165.76 676.63 L 57.07 567.94 L 57.07 247.28 Z" fill="#dae8fc" stroke="#6c8ebf" stroke-width="5.43" stroke-miterlimit="10" transform="translate(0,461.96)scale(1,-1)translate(0,-461.96)rotate(-225,383.15,461.96)" pointer-events="none"/><path d="M 165.76 676.63 L 165.76 355.98 L 57.07 247.28 M 165.76 355.98 L 709.24 355.98" fill="none" stroke="#6c8ebf" stroke-width="5.43" stroke-miterlimit="10" transform="translate(0,461.96)scale(1,-1)translate(0,-461.96)rotate(-225,383.15,461.96)" pointer-events="none"/><path d="M 1527.18 326.09 L 1967.4 326.09 L 2076.09 434.78 L 2076.09 717.39 L 1635.87 717.39 L 1527.18 608.7 L 1527.18 326.09 Z" fill="#fff2cc" stroke="#d6b656" stroke-width="5.43" stroke-miterlimit="10" transform="translate(0,521.74)scale(1,-1)translate(0,-521.74)rotate(-406,1801.64,521.74)" pointer-events="none"/><path d="M 1635.87 717.39 L 1635.87 434.78 L 1527.18 326.09 M 1635.87 434.78 L 2076.09 434.78" fill="none" stroke="#d6b656" stroke-width="5.43" stroke-miterlimit="10" transform="translate(0,521.74)scale(1,-1)translate(0,-521.74)rotate(-406,1801.64,521.74)" pointer-events="none"/><path d="M 1163.05 929.35 L 1163.05 255.44 L 1815.22 929.35 Z" fill="#fff2cc" stroke="#d6b656" stroke-width="5.43" stroke-miterlimit="10" transform="rotate(-90,1489.14,592.39)" pointer-events="none"/><path d="M 907.61 168.48 L 1451.09 168.48 L 1559.79 277.17 L 1559.79 603.26 L 1016.31 603.26 L 907.61 494.57 L 907.61 168.48 Z" fill="#fff2cc" stroke="#d6b656" stroke-width="5.43" stroke-miterlimit="10" transform="translate(1233.7,0)scale(-1,1)translate(-1233.7,0)rotate(-225,1233.7,385.87)" pointer-events="none"/><path d="M 1016.31 603.26 L 1016.31 277.17 L 907.61 168.48 M 1016.31 277.17 L 1559.79 277.17" fill="none" stroke="#d6b656" stroke-width="5.43" stroke-miterlimit="10" transform="translate(1233.7,0)scale(-1,1)translate(-1233.7,0)rotate(-225,1233.7,385.87)" pointer-events="none"/><path d="M 385.87 766.31 L 385.87 76.09 L 1076.09 766.31 Z" fill="#dae8fc" stroke="#6c8ebf" stroke-width="5.43" stroke-miterlimit="10" transform="rotate(90,730.98,421.2)" pointer-events="none"/><path d="M 679.35 396.74 L 1217.4 396.74 L 1326.09 505.44 L 1326.09 826.09 L 788.05 826.09 L 679.35 717.39 L 679.35 396.74 Z" fill="#dae8fc" stroke="#6c8ebf" stroke-width="5.43" stroke-miterlimit="10" transform="translate(0,611.41)scale(1,-1)translate(0,-611.41)rotate(-225,1002.72,611.41)" pointer-events="none"/><path d="M 788.05 826.09 L 788.05 505.44 L 679.35 396.74 M 788.05 505.44 L 1326.09 505.44" fill="none" stroke="#6c8ebf" stroke-width="5.43" stroke-miterlimit="10" transform="translate(0,611.41)scale(1,-1)translate(0,-611.41)rotate(-225,1002.72,611.41)" pointer-events="none"/></g></svg>